<?xml version="1.0" encoding="UTF-8" standalone="no"?>
<svg
   xml:space="preserve"
   viewBox="0 0 264.6 264.6"
   version="1.1"
   id="svg2"
   sodipodi:docname="letocraflogo-web.svg"
   inkscape:version="1.3.2 (091e20ef0f, 2023-11-25)"
   xmlns:inkscape="http://www.inkscape.org/namespaces/inkscape"
   xmlns:sodipodi="http://sodipodi.sourceforge.net/DTD/sodipodi-0.dtd"
   xmlns="http://www.w3.org/2000/svg"
   xmlns:svg="http://www.w3.org/2000/svg"><defs
     id="defs2" /><sodipodi:namedview
     id="namedview2"
     pagecolor="#ffffff"
     bordercolor="#000000"
     borderopacity="0.25"
     inkscape:showpageshadow="2"
     inkscape:pageopacity="0.0"
     inkscape:pagecheckerboard="0"
     inkscape:deskcolor="#d1d1d1"
     inkscape:zoom="3.0650037"
     inkscape:cx="132.3"
     inkscape:cy="132.3"
     inkscape:window-width="1920"
     inkscape:window-height="1015"
     inkscape:window-x="0"
     inkscape:window-y="29"
     inkscape:window-maximized="1"
     inkscape:current-layer="svg2" /><path
     fill="green"
     stroke="green"
     stroke-width="1.1"
     d="M249.7 185.9h-4c-5 .2-5.3-.7 3 9.7l3 3.8H144v-7.5l10.3-.2 33-.2c18.4 0 23 0 23.5-.3a3.4 3.4 0 0 0 1-4.5l-.4-.8h-54.1c-47 0-54.2 0-54.2.4 0 .2.7 1.3 1.6 2.5a2018.1 2018.1 0 0 1 8.3 10.4c.2 0-22.2.2-49.8.2H12.9l3.1-4 5-6.4c2.7-3.2 2.8-3.1-2-3.1h-4l-3.4 4.2-5.7 7.3c-3.6 4.5-4 6-2 7.7.8.7.8.7 23.1.7h22.4v14c0 16.2 0 16.1 2.7 16.6 1.4.3 22 0 22.7-.3 1.7-.6 1.6-.5 1.7-16l.1-14.3h30.6v14c0 19-2.5 16.8 18.3 16.7 21-.1 18.3 2.2 18.4-16.4v-14.3h15.7l15.7.2v14c.1 17.6-.3 16.6 6.4 16.5l13-.1c9.6 0 9.9.1 10.5-.9 1.7-2.4 1.2-13.1 1.1-15.2l.1-14.4 27-.2c30.2-.1 28 0 28.4-2.7.2-1.7.5-1.3-9.6-14zM126 28c-19.5 17.6-55.1 62.2-53.7 65 .8 1.4 2 2.4 8.4 2.5h5.6l-2 2.9-5.8 7.4c-1.4 2-.5 2.8-11.1-10.4-4.4-5.4-4.7-5.3-15.3 7.8-8.1 10.3-17 20-24.6 30.6 0 .6 6.7.4 8 .4l26.7-32.5.8-1 27.5 33.5h4c4.8 0 4.8 0 2.1-3.2l-9.5-11.6c-5.4-6.6-5.4-6.6-4.9-7.3l9.4-12.4c7.5-9.6 7-11-3.4-11h-5.5c16.6-22 22.5-29 43.4-51.4l21 25.6 21.2 25.8-27.8.2v6.5l15.7.1c27.4 35.7 10.3 13.1 27 35 3 4 2.4 3.8 6.8 3.7 4.9-.1 5.5 1.5-7.4-15.4l-9-11.8c-1.9-2.2-1.5-3.4-.2-5.2a335 335 0 0 1 17.5-21.5c16.9 20.4-4.4-5.3 33.3 40.6-3.5.4-10.1-1.2-10.3 3.5.9 3.6 4.1 6.7 6.3 9.7h4c4.9.2 4.8.2 1.9-3.5l-2-2.7 4.2-.1c5.3-.2 6.4-.7 6.4-3.2 0-1.6-.2-2-7-10l-21-25.7-8.4-10.3c-5.4-6.5-5.5-6.7-7.2-6.9-4.2.4-10.9 11.1-14.1 14.8l-1 1-1.9-2.4A1955.9 1955.9 0 0 0 133 35.6l-7-7.6zm41 67c3.9 0 3.9 0 1.9 2.4l-1.1 1.2c-1 .8-1.4.4-2.7-1.2l-.4-.6c-1.3-1.8-1-1.9 2.3-1.9z"
     id="path1" /><path
     fill="#520"
     d="M16 143.3q.8 0 1.3 11.6l-.1 1.1v.5l.1.3q-.3 0-.3 1v.7l.3 5v4.6q0 .4.4 1l1-.2h3.8q1.2 0 1.4 1.9 0 .2-.8.4-.9 2.2-1.7 2.2.5 1.2.8 1.2 1.2-1.5 1.3-2.1 1.8 0 1.8-1l-.3-1.2v-1q.2-.4.4-.4h2.8q1 0 1.3 2.3l-.7 1.9q0 2-1.1 2h-20l-.3-.1q-1.6-5.5-1.6-12.5v-6.7l-.1-1 .1-.2-.1-7.6v-2.8q0-.9.8-1.3h8.4zm17.7-.3h23.6q.2 0 .4.5v1.4q0 .5.2.8 0 3.7-1.9 3.7h-.8q-7 0-9.3-.3l-1 .1-1.6-.1q0 1-.8 6.3l.3.2h.7q5.9 0 5.9.6l.1.6-.1.8q0 1.6.9 2.2l.3-.2-.2-.8q0-3 1.9-3H57l.1.4.2 5q-.6 1.2-1.6 1.2h-4q-.8 0-1.4-1.4H50q0 1.4-1 1.4h-5.8q-.1 2.6-.6 5.6l.1.6H55q.3 0 .3.3v.3l-.7.2h-2.3q-.6.3-.8 1h3.7q.7 0 2-1.6.4 0 .4.3v1.7l.1 3.4q-.7 1-2.8 1h-2q-1.5 0-1.5-4v-.6h-.2q-.7 0-.8 4.4h-8.7q-2 0-3.7-4 0-.3.2-.5l-.2-1.7V167q0-.4-.6-.5l-3.2.1q-1.9-.3-1.9-.7v-3.3l-.2-.1.2-.4v-.1l-.2-1.2q0-.4.2-.4l-.2-2.3V154l-.1-.6q0-.8 5.7-1.2 0-.3.8-.3l.3.1q.6-.2.6-.5v-.1l-3-.5-1.6.5q-2.5 0-2.5-2.3 0-1.9-.2-1.9l.2-.3-.2-2.8q0-1 1.6-1zm3.3 24.5.4 1.3-.2.3.2 3h.2l-.2.4v.8l.2.6q0 .7-2.2 1.2h-2.5q-.7 0-1-7 .7-.4 1.2-.4h3zM60.8 143H78l.4.3q-1.5 3.3-1.5 3.9.4 0 .5.8l-.3 1.8.4 1-.1.9v22.2q-1 1.2-2.2 1.2h-7.1q-1 0-1.5-1.8l.1-1.1v-1.4q0-4.2 2.7-4.2 0-.2.9-.3l1.7.2 3-.5q.8.3 1.3.3l.2-.3q-.2 0-.8-.8-2.2.4-3.4.4-3-.4-4.2-.4h-.3l-.1.2q-.7 0-.8-1.7l.1-13.4q.5-3 1.3-3.9v-.3q-1.4 0-2.2 2.8l-.8.1-4.3.2q-.8 0-1-3.3.2-2.9.8-2.9zm18.6 0h2.3q2.7 0 4.2.3v.5q0 .4.4 1.2-1 4-2.4 4 0 .2-.2.2-4.8 0-4.8-1l-.5-2.3q.8-2.9 1-2.9zm9.6 0h8.3q1.6 0 1.9 2v1.4q0 .2.4.5h.3q0-.6.7-2.6v-1.1q.2-.2.6-.2h2.2q.6 0 2.9 2.3l2.9-.9q.4-1.2 1.4-1.2h2.3q.5 0 1 .4l.4 12.3q-.7 1.7-1.4 1.7l-1-.1v.6q2.5.3 2.5.9l.2 1.2.1 12.2.2.9q-.5 1.7-1.5 1.7H99.6l-7.5.1q-2.1-.4-2.1-.6-1.6-5-1.6-12.1v-6.6l-.1-1 .1-.3-.1-7.5v-2.7q0-.9.7-1.3zm10.5 6.3q.1 4.4.3 5.4l-.2 1.2v.5l.2.1q-.3.6-.3 1.3v.6l.3 4.9v4.6l.1.8h2.4q1 0 1-4.5l.2-.6h.5q1 1 1.4 1 .9-.4 3.7-.7l2.6.3v-.3q0-.4-2.8-.8h-3q-1.3 0-2.7-2.4 0-2.3 1-10.3-.4-1-1.3-1zM143 143l.5.1v1q0 .4-1 1.5 0 3.8-1.7 3.8h-11.2q-1.1 0-1.1 4.5l-.2.7h-.4q-1-1-1.4-1-1 .3-3.7.6l-2.6-.3v.3q0 .5 2.7.8h3.1q1.2 0 2.7 2.5 0 2.2-1.1 10.3.4 1.1 1.3 1.1h.2l12.2-.2q.4 0 1.2 1.3l-.1 2.6v1.2q0 1.4-1.7 1.4h-.8q-4 0-4-1.8v-1.6q0-.2-.5-.4h-.3q0 .6-.6 2.6v1l-.6.2h-5.4q-.7 0-3-2.3l-2.9 1q-.4 1.2-1.4 1.2H119q-.5 0-1-.5l-.4-12.3q.7-1.7 1.4-1.7l1 .1.1-.3v-.3q-2.6-.3-2.6-1l-.2-1.2-.1-12.1-.2-1q.5-1.7 1.6-1.7H133l9.9-.1zm4 0h3.7q.2 0 1.5 2v4q-.1 3.6-.6 3.6l.1.5-.3 1.6q0 2.3 1.3 3h.4l2.2-.4q1 .8 1.4.8l.1-.2q-.4-1-1.2-1.7l-2.6.3-.7-.4q.5-1.3.8-6.4l-.1-.5.1-2.9v-1.5q0-.5-.4-1.1v-.3q0-.3.3-.3h17.3q1.2 0 1.2 2.3.2 0 .3 1l-.4 3.8q.1 1 .7 2.6 0 2.6-1.7 2.6-2.3 0-2.9 2l-.6.2h-1.6q-.8 0-1.4.8l2.8.4h4.2l.5.3-.2 1.1v.2l.6 2.5q-.8 4.8-.8 7.4v.3l.5 2.2v.7q0 1.3-1.7 1.7h-3l-.7-.1v-1.6q0-.2-.5-.5h-.1q-.3 2.2-1.2 2.2h-2.4q-1 0-1.2-1.2l.2-.3v-.3q0-1.1-.8-3.1.2-4.7 1-4.7l7.2-.7v-.3H161q-.2 0-.9-1.6l-.6-.3h-3l-.2 3 .3 1.3q-.7.7-5.4.7-1 .4-1.3.9l.2.1q2.1-.3 4.2-.3 2.6.2 2.6 1 0 5.7-1.4 5.7H149q-.9 0-1.2-.8 1.8-1.5 1.8-2.3v-3.3h-.1q-.7.4-1.1 3.6-1 0-2.3 2.4h-.3q.4-10.3.6-11-.6-1.2-.8-2.7 0-7.3 2.3-7.3 0-.2 3-.6l.4-.5-.4-.1-1.3.1q-3.5-.2-3.5-.7.3-9 .7-9zm10 6.6-.2.7v1q0 .5.8 1.5l-.3 2.8.3.1h.8l1.8.2q.3-.6.5-3.1l-.2-.6.2-1.6v-.4q0-.3-.6-.6zm18.9-6.7 18.1.1h6.4l.8.2v2.2l-.2 1.8h.2l-.2.5q0 5-.3 12h.2l-.2.5-.1 7.5q-.2.8-1.1.8-.6 0-1.4-.8l-6-.3q-1.6.8-2 .8 0-1.8-1-2.5h-2l-.9-.2q-.4 0-.8 1.1.3 4.9.3 7.8-.8.8-1.4.8h-2q-.6 0-1.4-.8l-1 .8h-4.8q-.6-.2-.6-1.4.6-6.5.8-11.9l-.2-.3.2-1-.2-.2q.2-.3.2-.7l-.2-.6q.2-.2.2-.6v-.3q0-.2-.2-.2l.2-.3v-9.4l.1-1.7-.1-.3.1-1-.1-.4.1-.6v-.5l-.1-.2q.2-.7.6-.7zm12.7 15.4 2.8-1.2v-1.4q-.5-1.5-.5-2.8h-.1l-1 .2-.5-2 .3-.4-.6-.9v.4l-.6.2h-1.3l-.5.8q0 2.1-.8 2.1t-.8 1.8l-.2 2.5.4 1v.1l1.7-.3 1-.4.7.3zm3.7 9.9q5.1.2 5.1 1.2 2 0 3 1.5 0 4.3-2.5 4.3h-7.3q-1 0-1.4-1 .7-5.5 1.2-5.5.4 0 1.9-.5zm13-25h23.3q1 0 1 1.2 0 .7.9 2.6-.3 2.3-1.4 2.3H223q-.2 0-.5-.4v-1l.3-1.2q0-1-1.7-1-.1-.6-1.3-2.1-.3 0-.8 1.2.8 0 1.7 2.2.8.2.8.6-.4 1.7-1.4 1.7h-3.7l-1.1-.1q-.4.5-.4 1v4q0 1.3 1.5 1.7h4.3q.8 0 .8.3l1.8-.2h5.8q.3 0 .4 1-.4 1.7-.4 2.4l.6 1.6q-.3 1.8-1.4 1.8h-7l-.3-.1q0-1.4 1.2-5.1v-.2l-.1-.5h-.3l-2.2 4.5q-1.7 1.6-4.7 1.6-.5 12-1.3 12l-1.1.2H204q-.8-.4-.8-1.2v-3l.2-7.6q0-.2-.2-.2l.2-1v-6.7q0-7 1.5-12.4zm28.1 0h17.2l.4.2q-1.5 3.3-1.5 3.9.3 0 .5.8-.4 1.3-.4 1.8l.5 1-.1.9V174q-1 1.2-2.2 1.2h-7.1q-1 0-1.6-1.8l.2-1.1v-1.4q0-4.2 2.6-4.2 0-.2 1-.3l1.7.2 3-.5q.8.3 1.3.3l.1-.3-.7-.8q-2.2.4-3.4.4-3-.4-4.2-.4h-.3q-.2 0-.2.2-.6 0-.7-1.7l.1-13.4q.5-3 1.2-3.9v-.3q-1.3 0-2.1 2.8l-.8.1-4.3.2q-.8 0-1-3.3.2-2.9.8-2.9zm18.6 0h2.3q2.7 0 4.1.2v.5q0 .4.5 1.2-1 4-2.4 4 0 .2-.2.2-4.8 0-4.8-1l-.5-2.3q.7-2.9 1-2.9z"
     aria-label="Letocraft"
     font-family="Minecraft Evenings"
     font-size="45.9"
     style="-inkscape-font-specification:'Minecraft Evenings';text-align:center;fill:#ffffff"
     text-anchor="middle"
     id="path2" /></svg>
