<svg xmlns="http://www.w3.org/2000/svg" viewBox="0 0 448 512"><!--!Font Awesome Free 6.6.0 by @fontawesome - https://fontawesome.com License - https://fontawesome.com/license/free Copyright 2024 Fonticons, Inc.--><path d="M0 96C0 43 43 0 96 0h320c18 0 32 14 32 32v320c0 18-14 32-32 32v64a32 32 0 1 1 0 64H96c-53 0-96-43-96-96V96zm64 320c0 18 14 32 32 32h256v-64H96c-18 0-32 14-32 32zm183-132c-3 4-6 4-7 4s-4 0-7-4c-4-4-8-10-12-19-6-15-11-34-12-57h63c-2 23-6 42-13 57-3 9-8 15-11 19zm43-10c7-18 12-41 14-66h31c-5 28-22 52-45 66zm0-164c23 14 40 38 45 66h-31c-2-25-7-47-14-66zm78 82a128 128 0 1 0-256 0 128 128 0 1 0 256 0zm-223 16h31c2 25 7 48 14 66a96 96 0 0 1-45-66zm31-32h-31c5-28 22-52 45-66-7 18-12 41-14 66zm57-76c3-3 6-4 7-4s4 1 7 4c4 4 8 10 12 19 6 15 11 34 12 57h-63c2-23 6-42 13-57 3-9 8-15 11-19z" style="fill:#fff"/></svg>